<?xml version="1.0" encoding="UTF-8"?>
<?xml-stylesheet href="https://cdnjs.cloudflare.com/ajax/libs/font-awesome/6.6.0/css/all.min.css" type="text/css"?>
<svg aria-roledescription="er" role="graphics-document document" viewBox="0 0 566.4207763671875 632" style="max-width: 100%;" xmlns="http://www.w3.org/2000/svg" width="100%" id="graph-div" height="100%" xmlns:xlink="http://www.w3.org/1999/xlink"><style>#graph-div{font-family:"trebuchet ms",verdana,arial,sans-serif;font-size:16px;fill:#333;}#graph-div .error-icon{fill:#552222;}#graph-div .error-text{fill:#552222;stroke:#552222;}#graph-div .edge-thickness-normal{stroke-width:1px;}#graph-div .edge-thickness-thick{stroke-width:3.5px;}#graph-div .edge-pattern-solid{stroke-dasharray:0;}#graph-div .edge-thickness-invisible{stroke-width:0;fill:none;}#graph-div .edge-pattern-dashed{stroke-dasharray:3;}#graph-div .edge-pattern-dotted{stroke-dasharray:2;}#graph-div .marker{fill:#333333;stroke:#333333;}#graph-div .marker.cross{stroke:#333333;}#graph-div svg{font-family:"trebuchet ms",verdana,arial,sans-serif;font-size:16px;}#graph-div p{margin:0;}#graph-div .entityBox{fill:#ECECFF;stroke:#9370DB;}#graph-div .attributeBoxOdd{fill:#ffffff;stroke:#9370DB;}#graph-div .attributeBoxEven{fill:#f2f2f2;stroke:#9370DB;}#graph-div .relationshipLabelBox{fill:hsl(80, 100%, 96.2745098039%);opacity:0.7;background-color:hsl(80, 100%, 96.2745098039%);}#graph-div .relationshipLabelBox rect{opacity:0.5;}#graph-div .relationshipLine{stroke:#333333;}#graph-div .entityTitleText{text-anchor:middle;font-size:18px;fill:#333;}#graph-div #MD_PARENT_START{fill:#f5f5f5!important;stroke:#333333!important;stroke-width:1;}#graph-div #MD_PARENT_END{fill:#f5f5f5!important;stroke:#333333!important;stroke-width:1;}#graph-div :root{--mermaid-font-family:"trebuchet ms",verdana,arial,sans-serif;}</style><g></g><defs><marker orient="auto" markerHeight="240" markerWidth="190" refY="7" refX="0" id="MD_PARENT_START"><path d="M 18,7 L9,13 L1,7 L9,1 Z"></path></marker></defs><defs><marker orient="auto" markerHeight="28" markerWidth="20" refY="7" refX="19" id="MD_PARENT_END"><path d="M 18,7 L9,13 L1,7 L9,1 Z"></path></marker></defs><defs><marker orient="auto" markerHeight="18" markerWidth="18" refY="9" refX="0" id="ONLY_ONE_START"><path d="M9,0 L9,18 M15,0 L15,18" fill="none" stroke="gray"></path></marker></defs><defs><marker orient="auto" markerHeight="18" markerWidth="18" refY="9" refX="18" id="ONLY_ONE_END"><path d="M3,0 L3,18 M9,0 L9,18" fill="none" stroke="gray"></path></marker></defs><defs><marker orient="auto" markerHeight="18" markerWidth="30" refY="9" refX="0" id="ZERO_OR_ONE_START"><circle r="6" cy="9" cx="21" fill="white" stroke="gray"></circle><path d="M9,0 L9,18" fill="none" stroke="gray"></path></marker></defs><defs><marker orient="auto" markerHeight="18" markerWidth="30" refY="9" refX="30" id="ZERO_OR_ONE_END"><circle r="6" cy="9" cx="9" fill="white" stroke="gray"></circle><path d="M21,0 L21,18" fill="none" stroke="gray"></path></marker></defs><defs><marker orient="auto" markerHeight="36" markerWidth="45" refY="18" refX="18" id="ONE_OR_MORE_START"><path d="M0,18 Q 18,0 36,18 Q 18,36 0,18 M42,9 L42,27" fill="none" stroke="gray"></path></marker></defs><defs><marker orient="auto" markerHeight="36" markerWidth="45" refY="18" refX="27" id="ONE_OR_MORE_END"><path d="M3,9 L3,27 M9,18 Q27,0 45,18 Q27,36 9,18" fill="none" stroke="gray"></path></marker></defs><defs><marker orient="auto" markerHeight="36" markerWidth="57" refY="18" refX="18" id="ZERO_OR_MORE_START"><circle r="6" cy="18" cx="48" fill="white" stroke="gray"></circle><path d="M0,18 Q18,0 36,18 Q18,36 0,18" fill="none" stroke="gray"></path></marker></defs><defs><marker orient="auto" markerHeight="36" markerWidth="57" refY="18" refX="39" id="ZERO_OR_MORE_END"><circle r="6" cy="18" cx="9" fill="white" stroke="gray"></circle><path d="M21,18 Q39,0 57,18 Q39,36 21,18" fill="none" stroke="gray"></path></marker></defs><path style="stroke: gray; fill: none;" marker-start="url(#ONLY_ONE_START)" marker-end="url(#ZERO_OR_MORE_END)" d="M120.94,129.333L114.484,137.667C108.027,146,95.113,162.667,88.656,181.111C82.199,199.556,82.199,219.778,82.199,229.889L82.199,240" class="er relationshipLine"></path><path style="stroke: gray; fill: none;" marker-start="url(#ONLY_ONE_START)" marker-end="url(#ZERO_OR_MORE_END)" d="M216.799,128.511L225.216,136.981C233.632,145.452,250.465,162.392,258.881,190.085C267.298,217.778,267.298,256.222,267.298,294.667C267.298,333.111,267.298,371.556,283.58,404.099C299.862,436.643,332.426,463.286,348.708,476.608L364.99,489.93" class="er relationshipLine"></path><path style="stroke: gray; fill: none;" marker-start="url(#ONLY_ONE_START)" marker-end="url(#ZERO_OR_MORE_END)" d="M446.298,350.115L437.298,360.096C428.298,370.077,410.298,390.039,380.08,414.955C349.862,439.871,307.426,469.743,286.208,484.678L264.99,499.614" class="er relationshipLine"></path><path style="stroke: gray; fill: none;" marker-start="url(#ONLY_ONE_START)" marker-end="url(#ZERO_OR_MORE_END)" d="M524.621,360L528.234,368.333C531.847,376.667,539.072,393.333,531.236,413.207C523.4,433.08,500.503,456.161,489.055,467.701L477.606,479.241" class="er relationshipLine"></path><path style="stroke: gray; fill: none;" marker-start="url(#ONLY_ONE_START)" marker-end="url(#ONE_OR_MORE_END)" d="M82.199,349.333L82.199,359.444C82.199,369.556,82.199,389.778,95.433,412.609C108.668,435.44,135.137,460.879,148.372,473.599L161.607,486.319" class="er relationshipLine"></path><path style="stroke: gray; fill: none;" marker-start="url(#ONLY_ONE_START)" marker-end="url(#ZERO_OR_MORE_END)" d="M496.298,108L496.298,119.889C496.298,131.778,496.298,155.556,496.298,175.778C496.298,196,496.298,212.667,496.298,221L496.298,229.333" class="er relationshipLine"></path><g transform="translate(109.79719352722168,20 )" id="entity-USERS-1e82e395-936c-57a7-8ba9-b08f03574b93"><rect height="109.33333587646484" width="107.0018424987793" y="0" x="0" class="er entityBox"></rect><text transform="translate(53.50092124938965,12)" style="dominant-baseline: middle; text-anchor: middle; font-size: 12px;" y="0" x="0" id="text-entity-USERS-1e82e395-936c-57a7-8ba9-b08f03574b93" class="er entityLabel">USERS</text><rect height="21.33333396911621" width="52.044952392578125" y="24" x="0" class="er attributeBoxOdd"></rect><text transform="translate(5,34.666666984558105)" style="dominant-baseline: middle; font-size: 10.2px;" y="0" x="0" id="text-entity-USERS-1e82e395-936c-57a7-8ba9-b08f03574b93-attr-1-type" class="er entityLabel">string</text><rect height="21.33333396911621" width="54.95689010620117" y="24" x="52.044952392578125" class="er attributeBoxOdd"></rect><text transform="translate(57.044952392578125,34.666666984558105)" style="dominant-baseline: middle; font-size: 10.2px;" y="0" x="0" id="text-entity-USERS-1e82e395-936c-57a7-8ba9-b08f03574b93-attr-1-name" class="er entityLabel">id</text><rect height="21.33333396911621" width="52.044952392578125" y="45.33333396911621" x="0" class="er attributeBoxEven"></rect><text transform="translate(5,56.000000953674316)" style="dominant-baseline: middle; font-size: 10.2px;" y="0" x="0" id="text-entity-USERS-1e82e395-936c-57a7-8ba9-b08f03574b93-attr-2-type" class="er entityLabel">string</text><rect height="21.33333396911621" width="54.95689010620117" y="45.33333396911621" x="52.044952392578125" class="er attributeBoxEven"></rect><text transform="translate(57.044952392578125,56.000000953674316)" style="dominant-baseline: middle; font-size: 10.2px;" y="0" x="0" id="text-entity-USERS-1e82e395-936c-57a7-8ba9-b08f03574b93-attr-2-name" class="er entityLabel">name</text><rect height="21.33333396911621" width="52.044952392578125" y="66.66666793823242" x="0" class="er attributeBoxOdd"></rect><text transform="translate(5,77.33333492279053)" style="dominant-baseline: middle; font-size: 10.2px;" y="0" x="0" id="text-entity-USERS-1e82e395-936c-57a7-8ba9-b08f03574b93-attr-3-type" class="er entityLabel">string</text><rect height="21.33333396911621" width="54.95689010620117" y="66.66666793823242" x="52.044952392578125" class="er attributeBoxOdd"></rect><text transform="translate(57.044952392578125,77.33333492279053)" style="dominant-baseline: middle; font-size: 10.2px;" y="0" x="0" id="text-entity-USERS-1e82e395-936c-57a7-8ba9-b08f03574b93-attr-3-name" class="er entityLabel">email</text><rect height="21.33333396911621" width="52.044952392578125" y="88.00000190734863" x="0" class="er attributeBoxEven"></rect><text transform="translate(5,98.66666889190674)" style="dominant-baseline: middle; font-size: 10.2px;" y="0" x="0" id="text-entity-USERS-1e82e395-936c-57a7-8ba9-b08f03574b93-attr-4-type" class="er entityLabel">datetime</text><rect height="21.33333396911621" width="54.95689010620117" y="88.00000190734863" x="52.044952392578125" class="er attributeBoxEven"></rect><text transform="translate(57.044952392578125,98.66666889190674)" style="dominant-baseline: middle; font-size: 10.2px;" y="0" x="0" id="text-entity-USERS-1e82e395-936c-57a7-8ba9-b08f03574b93-attr-4-name" class="er entityLabel">joined_at</text></g><g transform="translate(20,240.00000381469727 )" id="entity-ORDERS-892fdbd0-1a6d-547f-b5d2-5ca9e20e885e"><rect height="109.33333587646484" width="124.3974838256836" y="0" x="0" class="er entityBox"></rect><text transform="translate(62.1987419128418,12)" style="dominant-baseline: middle; text-anchor: middle; font-size: 12px;" y="0" x="0" id="text-entity-ORDERS-892fdbd0-1a6d-547f-b5d2-5ca9e20e885e" class="er entityLabel">ORDERS</text><rect height="21.33333396911621" width="52.044952392578125" y="24" x="0" class="er attributeBoxOdd"></rect><text transform="translate(5,34.666666984558105)" style="dominant-baseline: middle; font-size: 10.2px;" y="0" x="0" id="text-entity-ORDERS-892fdbd0-1a6d-547f-b5d2-5ca9e20e885e-attr-1-type" class="er entityLabel">string</text><rect height="21.33333396911621" width="72.35253143310547" y="24" x="52.044952392578125" class="er attributeBoxOdd"></rect><text transform="translate(57.044952392578125,34.666666984558105)" style="dominant-baseline: middle; font-size: 10.2px;" y="0" x="0" id="text-entity-ORDERS-892fdbd0-1a6d-547f-b5d2-5ca9e20e885e-attr-1-name" class="er entityLabel">id</text><rect height="21.33333396911621" width="52.044952392578125" y="45.33333396911621" x="0" class="er attributeBoxEven"></rect><text transform="translate(5,56.000000953674316)" style="dominant-baseline: middle; font-size: 10.2px;" y="0" x="0" id="text-entity-ORDERS-892fdbd0-1a6d-547f-b5d2-5ca9e20e885e-attr-2-type" class="er entityLabel">datetime</text><rect height="21.33333396911621" width="72.35253143310547" y="45.33333396911621" x="52.044952392578125" class="er attributeBoxEven"></rect><text transform="translate(57.044952392578125,56.000000953674316)" style="dominant-baseline: middle; font-size: 10.2px;" y="0" x="0" id="text-entity-ORDERS-892fdbd0-1a6d-547f-b5d2-5ca9e20e885e-attr-2-name" class="er entityLabel">order_date</text><rect height="21.33333396911621" width="52.044952392578125" y="66.66666793823242" x="0" class="er attributeBoxOdd"></rect><text transform="translate(5,77.33333492279053)" style="dominant-baseline: middle; font-size: 10.2px;" y="0" x="0" id="text-entity-ORDERS-892fdbd0-1a6d-547f-b5d2-5ca9e20e885e-attr-3-type" class="er entityLabel">link</text><rect height="21.33333396911621" width="72.35253143310547" y="66.66666793823242" x="52.044952392578125" class="er attributeBoxOdd"></rect><text transform="translate(57.044952392578125,77.33333492279053)" style="dominant-baseline: middle; font-size: 10.2px;" y="0" x="0" id="text-entity-ORDERS-892fdbd0-1a6d-547f-b5d2-5ca9e20e885e-attr-3-name" class="er entityLabel">user</text><rect height="21.33333396911621" width="52.044952392578125" y="88.00000190734863" x="0" class="er attributeBoxEven"></rect><text transform="translate(5,98.66666889190674)" style="dominant-baseline: middle; font-size: 10.2px;" y="0" x="0" id="text-entity-ORDERS-892fdbd0-1a6d-547f-b5d2-5ca9e20e885e-attr-4-type" class="er entityLabel">float</text><rect height="21.33333396911621" width="72.35253143310547" y="88.00000190734863" x="52.044952392578125" class="er attributeBoxEven"></rect><text transform="translate(57.044952392578125,98.66666889190674)" style="dominant-baseline: middle; font-size: 10.2px;" y="0" x="0" id="text-entity-ORDERS-892fdbd0-1a6d-547f-b5d2-5ca9e20e885e-attr-4-name" class="er entityLabel">total_amount</text></g><g transform="translate(364.9895191192627,460.00000762939453 )" id="entity-REVIEWS-86b90fbf-f7b6-59df-9364-bf9bfe05ca57"><rect height="152.00000381469727" width="112.61640548706055" y="0" x="0" class="er entityBox"></rect><text transform="translate(56.30820274353027,12)" style="dominant-baseline: middle; text-anchor: middle; font-size: 12px;" y="0" x="0" id="text-entity-REVIEWS-86b90fbf-f7b6-59df-9364-bf9bfe05ca57" class="er entityLabel">REVIEWS</text><rect height="21.33333396911621" width="52.044952392578125" y="24" x="0" class="er attributeBoxOdd"></rect><text transform="translate(5,34.666666984558105)" style="dominant-baseline: middle; font-size: 10.2px;" y="0" x="0" id="text-entity-REVIEWS-86b90fbf-f7b6-59df-9364-bf9bfe05ca57-attr-1-type" class="er entityLabel">string</text><rect height="21.33333396911621" width="60.57145309448242" y="24" x="52.044952392578125" class="er attributeBoxOdd"></rect><text transform="translate(57.044952392578125,34.666666984558105)" style="dominant-baseline: middle; font-size: 10.2px;" y="0" x="0" id="text-entity-REVIEWS-86b90fbf-f7b6-59df-9364-bf9bfe05ca57-attr-1-name" class="er entityLabel">id</text><rect height="21.33333396911621" width="52.044952392578125" y="45.33333396911621" x="0" class="er attributeBoxEven"></rect><text transform="translate(5,56.000000953674316)" style="dominant-baseline: middle; font-size: 10.2px;" y="0" x="0" id="text-entity-REVIEWS-86b90fbf-f7b6-59df-9364-bf9bfe05ca57-attr-2-type" class="er entityLabel">link</text><rect height="21.33333396911621" width="60.57145309448242" y="45.33333396911621" x="52.044952392578125" class="er attributeBoxEven"></rect><text transform="translate(57.044952392578125,56.000000953674316)" style="dominant-baseline: middle; font-size: 10.2px;" y="0" x="0" id="text-entity-REVIEWS-86b90fbf-f7b6-59df-9364-bf9bfe05ca57-attr-2-name" class="er entityLabel">user</text><rect height="21.33333396911621" width="52.044952392578125" y="66.66666793823242" x="0" class="er attributeBoxOdd"></rect><text transform="translate(5,77.33333492279053)" style="dominant-baseline: middle; font-size: 10.2px;" y="0" x="0" id="text-entity-REVIEWS-86b90fbf-f7b6-59df-9364-bf9bfe05ca57-attr-3-type" class="er entityLabel">link</text><rect height="21.33333396911621" width="60.57145309448242" y="66.66666793823242" x="52.044952392578125" class="er attributeBoxOdd"></rect><text transform="translate(57.044952392578125,77.33333492279053)" style="dominant-baseline: middle; font-size: 10.2px;" y="0" x="0" id="text-entity-REVIEWS-86b90fbf-f7b6-59df-9364-bf9bfe05ca57-attr-3-name" class="er entityLabel">product</text><rect height="21.33333396911621" width="52.044952392578125" y="88.00000190734863" x="0" class="er attributeBoxEven"></rect><text transform="translate(5,98.66666889190674)" style="dominant-baseline: middle; font-size: 10.2px;" y="0" x="0" id="text-entity-REVIEWS-86b90fbf-f7b6-59df-9364-bf9bfe05ca57-attr-4-type" class="er entityLabel">string</text><rect height="21.33333396911621" width="60.57145309448242" y="88.00000190734863" x="52.044952392578125" class="er attributeBoxEven"></rect><text transform="translate(57.044952392578125,98.66666889190674)" style="dominant-baseline: middle; font-size: 10.2px;" y="0" x="0" id="text-entity-REVIEWS-86b90fbf-f7b6-59df-9364-bf9bfe05ca57-attr-4-name" class="er entityLabel">content</text><rect height="21.33333396911621" width="52.044952392578125" y="109.33333587646484" x="0" class="er attributeBoxOdd"></rect><text transform="translate(5,120.00000286102295)" style="dominant-baseline: middle; font-size: 10.2px;" y="0" x="0" id="text-entity-REVIEWS-86b90fbf-f7b6-59df-9364-bf9bfe05ca57-attr-5-type" class="er entityLabel">int</text><rect height="21.33333396911621" width="60.57145309448242" y="109.33333587646484" x="52.044952392578125" class="er attributeBoxOdd"></rect><text transform="translate(57.044952392578125,120.00000286102295)" style="dominant-baseline: middle; font-size: 10.2px;" y="0" x="0" id="text-entity-REVIEWS-86b90fbf-f7b6-59df-9364-bf9bfe05ca57-attr-5-name" class="er entityLabel">rating</text><rect height="21.33333396911621" width="52.044952392578125" y="130.66666984558105" x="0" class="er attributeBoxEven"></rect><text transform="translate(5,141.33333683013916)" style="dominant-baseline: middle; font-size: 10.2px;" y="0" x="0" id="text-entity-REVIEWS-86b90fbf-f7b6-59df-9364-bf9bfe05ca57-attr-6-type" class="er entityLabel">datetime</text><rect height="21.33333396911621" width="60.57145309448242" y="130.66666984558105" x="52.044952392578125" class="er attributeBoxEven"></rect><text transform="translate(57.044952392578125,141.33333683013916)" style="dominant-baseline: middle; font-size: 10.2px;" y="0" x="0" id="text-entity-REVIEWS-86b90fbf-f7b6-59df-9364-bf9bfe05ca57-attr-6-name" class="er entityLabel">created_at</text></g><g transform="translate(446.29771995544434,229.33333587646484 )" id="entity-PRODUCTS-362c442a-463b-592a-aa0d-86bc5b21c2f4"><rect height="130.66666984558105" width="100" y="0" x="0" class="er entityBox"></rect><text transform="translate(50,12)" style="dominant-baseline: middle; text-anchor: middle; font-size: 12px;" y="0" x="0" id="text-entity-PRODUCTS-362c442a-463b-592a-aa0d-86bc5b21c2f4" class="er entityLabel">PRODUCTS</text><rect height="21.33333396911621" width="37.49552917480469" y="24" x="0" class="er attributeBoxOdd"></rect><text transform="translate(5,34.666666984558105)" style="dominant-baseline: middle; font-size: 10.2px;" y="0" x="0" id="text-entity-PRODUCTS-362c442a-463b-592a-aa0d-86bc5b21c2f4-attr-1-type" class="er entityLabel">string</text><rect height="21.33333396911621" width="62.50447082519531" y="24" x="37.49552917480469" class="er attributeBoxOdd"></rect><text transform="translate(42.49552917480469,34.666666984558105)" style="dominant-baseline: middle; font-size: 10.2px;" y="0" x="0" id="text-entity-PRODUCTS-362c442a-463b-592a-aa0d-86bc5b21c2f4-attr-1-name" class="er entityLabel">id</text><rect height="21.33333396911621" width="37.49552917480469" y="45.33333396911621" x="0" class="er attributeBoxEven"></rect><text transform="translate(5,56.000000953674316)" style="dominant-baseline: middle; font-size: 10.2px;" y="0" x="0" id="text-entity-PRODUCTS-362c442a-463b-592a-aa0d-86bc5b21c2f4-attr-2-type" class="er entityLabel">string</text><rect height="21.33333396911621" width="62.50447082519531" y="45.33333396911621" x="37.49552917480469" class="er attributeBoxEven"></rect><text transform="translate(42.49552917480469,56.000000953674316)" style="dominant-baseline: middle; font-size: 10.2px;" y="0" x="0" id="text-entity-PRODUCTS-362c442a-463b-592a-aa0d-86bc5b21c2f4-attr-2-name" class="er entityLabel">name</text><rect height="21.33333396911621" width="37.49552917480469" y="66.66666793823242" x="0" class="er attributeBoxOdd"></rect><text transform="translate(5,77.33333492279053)" style="dominant-baseline: middle; font-size: 10.2px;" y="0" x="0" id="text-entity-PRODUCTS-362c442a-463b-592a-aa0d-86bc5b21c2f4-attr-3-type" class="er entityLabel">string</text><rect height="21.33333396911621" width="62.50447082519531" y="66.66666793823242" x="37.49552917480469" class="er attributeBoxOdd"></rect><text transform="translate(42.49552917480469,77.33333492279053)" style="dominant-baseline: middle; font-size: 10.2px;" y="0" x="0" id="text-entity-PRODUCTS-362c442a-463b-592a-aa0d-86bc5b21c2f4-attr-3-name" class="er entityLabel">description</text><rect height="21.33333396911621" width="37.49552917480469" y="88.00000190734863" x="0" class="er attributeBoxEven"></rect><text transform="translate(5,98.66666889190674)" style="dominant-baseline: middle; font-size: 10.2px;" y="0" x="0" id="text-entity-PRODUCTS-362c442a-463b-592a-aa0d-86bc5b21c2f4-attr-4-type" class="er entityLabel">float</text><rect height="21.33333396911621" width="62.50447082519531" y="88.00000190734863" x="37.49552917480469" class="er attributeBoxEven"></rect><text transform="translate(42.49552917480469,98.66666889190674)" style="dominant-baseline: middle; font-size: 10.2px;" y="0" x="0" id="text-entity-PRODUCTS-362c442a-463b-592a-aa0d-86bc5b21c2f4-attr-4-name" class="er entityLabel">price</text><rect height="21.33333396911621" width="37.49552917480469" y="109.33333587646484" x="0" class="er attributeBoxOdd"></rect><text transform="translate(5,120.00000286102295)" style="dominant-baseline: middle; font-size: 10.2px;" y="0" x="0" id="text-entity-PRODUCTS-362c442a-463b-592a-aa0d-86bc5b21c2f4-attr-5-type" class="er entityLabel">link</text><rect height="21.33333396911621" width="62.50447082519531" y="109.33333587646484" x="37.49552917480469" class="er attributeBoxOdd"></rect><text transform="translate(42.49552917480469,120.00000286102295)" style="dominant-baseline: middle; font-size: 10.2px;" y="0" x="0" id="text-entity-PRODUCTS-362c442a-463b-592a-aa0d-86bc5b21c2f4-attr-5-name" class="er entityLabel">category</text></g><g transform="translate(161.6067066192627,470.6666717529297 )" id="entity-ORDERITEMS-d4ca6fa3-4379-50e4-9502-93d20129943c"><rect height="130.66666984558105" width="103.3828125" y="0" x="0" class="er entityBox"></rect><text transform="translate(51.69140625,12)" style="dominant-baseline: middle; text-anchor: middle; font-size: 12px;" y="0" x="0" id="text-entity-ORDERITEMS-d4ca6fa3-4379-50e4-9502-93d20129943c" class="er entityLabel">ORDER_ITEMS</text><rect height="21.33333396911621" width="45.41265296936035" y="24" x="0" class="er attributeBoxOdd"></rect><text transform="translate(5,34.666666984558105)" style="dominant-baseline: middle; font-size: 10.2px;" y="0" x="0" id="text-entity-ORDERITEMS-d4ca6fa3-4379-50e4-9502-93d20129943c-attr-1-type" class="er entityLabel">string</text><rect height="21.33333396911621" width="57.97015953063965" y="24" x="45.41265296936035" class="er attributeBoxOdd"></rect><text transform="translate(50.41265296936035,34.666666984558105)" style="dominant-baseline: middle; font-size: 10.2px;" y="0" x="0" id="text-entity-ORDERITEMS-d4ca6fa3-4379-50e4-9502-93d20129943c-attr-1-name" class="er entityLabel">id</text><rect height="21.33333396911621" width="45.41265296936035" y="45.33333396911621" x="0" class="er attributeBoxEven"></rect><text transform="translate(5,56.000000953674316)" style="dominant-baseline: middle; font-size: 10.2px;" y="0" x="0" id="text-entity-ORDERITEMS-d4ca6fa3-4379-50e4-9502-93d20129943c-attr-2-type" class="er entityLabel">link</text><rect height="21.33333396911621" width="57.97015953063965" y="45.33333396911621" x="45.41265296936035" class="er attributeBoxEven"></rect><text transform="translate(50.41265296936035,56.000000953674316)" style="dominant-baseline: middle; font-size: 10.2px;" y="0" x="0" id="text-entity-ORDERITEMS-d4ca6fa3-4379-50e4-9502-93d20129943c-attr-2-name" class="er entityLabel">order</text><rect height="21.33333396911621" width="45.41265296936035" y="66.66666793823242" x="0" class="er attributeBoxOdd"></rect><text transform="translate(5,77.33333492279053)" style="dominant-baseline: middle; font-size: 10.2px;" y="0" x="0" id="text-entity-ORDERITEMS-d4ca6fa3-4379-50e4-9502-93d20129943c-attr-3-type" class="er entityLabel">link</text><rect height="21.33333396911621" width="57.97015953063965" y="66.66666793823242" x="45.41265296936035" class="er attributeBoxOdd"></rect><text transform="translate(50.41265296936035,77.33333492279053)" style="dominant-baseline: middle; font-size: 10.2px;" y="0" x="0" id="text-entity-ORDERITEMS-d4ca6fa3-4379-50e4-9502-93d20129943c-attr-3-name" class="er entityLabel">product</text><rect height="21.33333396911621" width="45.41265296936035" y="88.00000190734863" x="0" class="er attributeBoxEven"></rect><text transform="translate(5,98.66666889190674)" style="dominant-baseline: middle; font-size: 10.2px;" y="0" x="0" id="text-entity-ORDERITEMS-d4ca6fa3-4379-50e4-9502-93d20129943c-attr-4-type" class="er entityLabel">int</text><rect height="21.33333396911621" width="57.97015953063965" y="88.00000190734863" x="45.41265296936035" class="er attributeBoxEven"></rect><text transform="translate(50.41265296936035,98.66666889190674)" style="dominant-baseline: middle; font-size: 10.2px;" y="0" x="0" id="text-entity-ORDERITEMS-d4ca6fa3-4379-50e4-9502-93d20129943c-attr-4-name" class="er entityLabel">quantity</text><rect height="21.33333396911621" width="45.41265296936035" y="109.33333587646484" x="0" class="er attributeBoxOdd"></rect><text transform="translate(5,120.00000286102295)" style="dominant-baseline: middle; font-size: 10.2px;" y="0" x="0" id="text-entity-ORDERITEMS-d4ca6fa3-4379-50e4-9502-93d20129943c-attr-5-type" class="er entityLabel">float</text><rect height="21.33333396911621" width="57.97015953063965" y="109.33333587646484" x="45.41265296936035" class="er attributeBoxOdd"></rect><text transform="translate(50.41265296936035,120.00000286102295)" style="dominant-baseline: middle; font-size: 10.2px;" y="0" x="0" id="text-entity-ORDERITEMS-d4ca6fa3-4379-50e4-9502-93d20129943c-attr-5-name" class="er entityLabel">price</text></g><g transform="translate(446.29771995544434,41.333335876464844 )" id="entity-CATEGORIES-051115c8-8701-5ef2-9611-ff1fd9eaa4b7"><rect height="66.66666793823242" width="100" y="0" x="0" class="er entityBox"></rect><text transform="translate(50,12)" style="dominant-baseline: middle; text-anchor: middle; font-size: 12px;" y="0" x="0" id="text-entity-CATEGORIES-051115c8-8701-5ef2-9611-ff1fd9eaa4b7" class="er entityLabel">CATEGORIES</text><rect height="21.33333396911621" width="50.2763671875" y="24" x="0" class="er attributeBoxOdd"></rect><text transform="translate(5,34.666666984558105)" style="dominant-baseline: middle; font-size: 10.2px;" y="0" x="0" id="text-entity-CATEGORIES-051115c8-8701-5ef2-9611-ff1fd9eaa4b7-attr-1-type" class="er entityLabel">string</text><rect height="21.33333396911621" width="49.7236328125" y="24" x="50.2763671875" class="er attributeBoxOdd"></rect><text transform="translate(55.2763671875,34.666666984558105)" style="dominant-baseline: middle; font-size: 10.2px;" y="0" x="0" id="text-entity-CATEGORIES-051115c8-8701-5ef2-9611-ff1fd9eaa4b7-attr-1-name" class="er entityLabel">id</text><rect height="21.33333396911621" width="50.2763671875" y="45.33333396911621" x="0" class="er attributeBoxEven"></rect><text transform="translate(5,56.000000953674316)" style="dominant-baseline: middle; font-size: 10.2px;" y="0" x="0" id="text-entity-CATEGORIES-051115c8-8701-5ef2-9611-ff1fd9eaa4b7-attr-2-type" class="er entityLabel">string</text><rect height="21.33333396911621" width="49.7236328125" y="45.33333396911621" x="50.2763671875" class="er attributeBoxEven"></rect><text transform="translate(55.2763671875,56.000000953674316)" style="dominant-baseline: middle; font-size: 10.2px;" y="0" x="0" id="text-entity-CATEGORIES-051115c8-8701-5ef2-9611-ff1fd9eaa4b7-attr-2-name" class="er entityLabel">name</text></g><rect height="14" width="33.875" y="173.2857666015625" x="72.01214599609375" class="er relationshipLabelBox"></rect><text style="text-anchor: middle; dominant-baseline: middle; font-size: 12px;" y="180.2857666015625" x="88.94964599609375" id="rel1" class="er relationshipLabel">places</text><rect height="14" width="33.84375" y="312.7327575683594" x="250.54464721679688" class="er relationshipLabelBox"></rect><text style="text-anchor: middle; dominant-baseline: middle; font-size: 12px;" y="319.7327575683594" x="267.4665222167969" id="rel2" class="er relationshipLabel">writes</text><rect height="14" width="44.10416793823242" y="423.55657958984375" x="338.4182834625244" class="er relationshipLabelBox"></rect><text style="text-anchor: middle; dominant-baseline: middle; font-size: 12px;" y="430.55657958984375" x="360.4703674316406" id="rel3" class="er relationshipLabel">includes</text><rect height="14" width="44.40625" y="419.541259765625" x="502.01446533203125" class="er relationshipLabelBox"></rect><text style="text-anchor: middle; dominant-baseline: middle; font-size: 12px;" y="426.541259765625" x="524.2175903320312" id="rel4" class="er relationshipLabel">receives</text><rect height="14" width="44.84375" y="419.6087951660156" x="82.41201782226562" class="er relationshipLabelBox"></rect><text style="text-anchor: middle; dominant-baseline: middle; font-size: 12px;" y="426.6087951660156" x="104.83389282226562" id="rel5" class="er relationshipLabel">contains</text><rect height="14" width="61.19791793823242" y="161.66650390625" x="465.6990451812744" class="er relationshipLabelBox"></rect><text style="text-anchor: middle; dominant-baseline: middle; font-size: 12px;" y="168.66650390625" x="496.2980041503906" id="rel6" class="er relationshipLabel">categorizes</text></svg>